{
    "asset" : {
        "generator" : "Khronos glTF Blender I/O v1.7.33",
        "version" : "2.0"
    },
    "scene" : 0,
    "scenes" : [
        {
            "name" : "Scene",
            "nodes" : [
                0,
                1
            ]
        }
    ],
    "nodes" : [
        {
            "mesh" : 0,
            "name" : "Buch",
            "scale" : [
                1,
                0.6125330328941345,
                1
            ],
            "translation" : [
                -0.5823476314544678,
                0.054654836654663086,
                0.11045289039611816
            ]
        },
        {
            "mesh" : 1,
            "name" : "Plane",
            "scale" : [
                0.302093505859375,
                0.3743653893470764,
                0.4019894599914551
            ],
            "translation" : [
                -0.5817173719406128,
                0.10107030719518661,
                0.11250680685043335
            ]
        }
    ],
    "materials" : [
        {
            "doubleSided" : true,
            "name" : "bookcover",
            "pbrMetallicRoughness" : {
                "metallicFactor" : 0
            }
        },
        {
            "doubleSided" : true,
            "name" : "book side2",
            "pbrMetallicRoughness" : {
                "metallicFactor" : 0,
                "roughnessFactor" : 0.5
            }
        },
        {
            "doubleSided" : true,
            "name" : "gold",
            "pbrMetallicRoughness" : {
                "baseColorFactor" : [
                    0.43537843227386475,
                    0.31432560086250305,
                    0.009998505935072899,
                    1
                ],
                "roughnessFactor" : 0.15454545617103577
            }
        },
        {
            "doubleSided" : true,
            "name" : "Material.001",
            "pbrMetallicRoughness" : {
                "baseColorTexture" : {
                    "index" : 0
                },
                "metallicFactor" : 0,
                "roughnessFactor" : 0.5
            }
        }
    ],
    "meshes" : [
        {
            "name" : "W\u00fcrfel",
            "primitives" : [
                {
                    "attributes" : {
                        "POSITION" : 0,
                        "NORMAL" : 1,
                        "TEXCOORD_0" : 2,
                        "TEXCOORD_1" : 3
                    },
                    "indices" : 4,
                    "material" : 0
                },
                {
                    "attributes" : {
                        "POSITION" : 5,
                        "NORMAL" : 6,
                        "TEXCOORD_0" : 7,
                        "TEXCOORD_1" : 8
                    },
                    "indices" : 9,
                    "material" : 1
                },
                {
                    "attributes" : {
                        "POSITION" : 10,
                        "NORMAL" : 11,
                        "TEXCOORD_0" : 12,
                        "TEXCOORD_1" : 13
                    },
                    "indices" : 14,
                    "material" : 2
                }
            ]
        },
        {
            "name" : "Plane",
            "primitives" : [
                {
                    "attributes" : {
                        "POSITION" : 15,
                        "NORMAL" : 16,
                        "TEXCOORD_0" : 17
                    },
                    "indices" : 18,
                    "material" : 3
                }
            ]
        }
    ],
    "textures" : [
        {
            "sampler" : 0,
            "source" : 0
        }
    ],
    "images" : [
        {
            "mimeType" : "image/png",
            "name" : "BOOKCOVERRRRR",
            "uri" : "BOOKCOVERRRRR.png"
        }
    ],
    "accessors" : [
        {
            "bufferView" : 0,
            "componentType" : 5126,
            "count" : 756,
            "max" : [
                0.32111018896102905,
                0.07551255822181702,
                0.43083080649375916
            ],
            "min" : [
                -0.330539733171463,
                -0.07551252841949463,
                -0.43084052205085754
            ],
            "type" : "VEC3"
        },
        {
            "bufferView" : 1,
            "componentType" : 5126,
            "count" : 756,
            "type" : "VEC3"
        },
        {
            "bufferView" : 2,
            "componentType" : 5126,
            "count" : 756,
            "type" : "VEC2"
        },
        {
            "bufferView" : 3,
            "componentType" : 5126,
            "count" : 756,
            "type" : "VEC2"
        },
        {
            "bufferView" : 4,
            "componentType" : 5123,
            "count" : 1728,
            "type" : "SCALAR"
        },
        {
            "bufferView" : 5,
            "componentType" : 5126,
            "count" : 84,
            "max" : [
                0.31455641984939575,
                0.05732831731438637,
                0.4246198534965515
            ],
            "min" : [
                -0.3113422989845276,
                -0.05932530388236046,
                -0.4246198534965515
            ],
            "type" : "VEC3"
        },
        {
            "bufferView" : 6,
            "componentType" : 5126,
            "count" : 84,
            "type" : "VEC3"
        },
        {
            "bufferView" : 7,
            "componentType" : 5126,
            "count" : 84,
            "type" : "VEC2"
        },
        {
            "bufferView" : 8,
            "componentType" : 5126,
            "count" : 84,
            "type" : "VEC2"
        },
        {
            "bufferView" : 9,
            "componentType" : 5123,
            "count" : 324,
            "type" : "SCALAR"
        },
        {
            "bufferView" : 10,
            "componentType" : 5126,
            "count" : 84,
            "max" : [
                -0.3228650391101837,
                0.05809115245938301,
                -0.00863037258386612
            ],
            "min" : [
                -0.330539733171463,
                -0.06007834151387215,
                -0.3805304765701294
            ],
            "type" : "VEC3"
        },
        {
            "bufferView" : 11,
            "componentType" : 5126,
            "count" : 84,
            "type" : "VEC3"
        },
        {
            "bufferView" : 12,
            "componentType" : 5126,
            "count" : 84,
            "type" : "VEC2"
        },
        {
            "bufferView" : 13,
            "componentType" : 5126,
            "count" : 84,
            "type" : "VEC2"
        },
        {
            "bufferView" : 14,
            "componentType" : 5123,
            "count" : 216,
            "type" : "SCALAR"
        },
        {
            "bufferView" : 15,
            "componentType" : 5126,
            "count" : 4,
            "max" : [
                1,
                0,
                1
            ],
            "min" : [
                -1,
                0,
                -1
            ],
            "type" : "VEC3"
        },
        {
            "bufferView" : 16,
            "componentType" : 5126,
            "count" : 4,
            "type" : "VEC3"
        },
        {
            "bufferView" : 17,
            "componentType" : 5126,
            "count" : 4,
            "type" : "VEC2"
        },
        {
            "bufferView" : 18,
            "componentType" : 5123,
            "count" : 6,
            "type" : "SCALAR"
        }
    ],
    "bufferViews" : [
        {
            "buffer" : 0,
            "byteLength" : 9072,
            "byteOffset" : 0
        },
        {
            "buffer" : 0,
            "byteLength" : 9072,
            "byteOffset" : 9072
        },
        {
            "buffer" : 0,
            "byteLength" : 6048,
            "byteOffset" : 18144
        },
        {
            "buffer" : 0,
            "byteLength" : 6048,
            "byteOffset" : 24192
        },
        {
            "buffer" : 0,
            "byteLength" : 3456,
            "byteOffset" : 30240
        },
        {
            "buffer" : 0,
            "byteLength" : 1008,
            "byteOffset" : 33696
        },
        {
            "buffer" : 0,
            "byteLength" : 1008,
            "byteOffset" : 34704
        },
        {
            "buffer" : 0,
            "byteLength" : 672,
            "byteOffset" : 35712
        },
        {
            "buffer" : 0,
            "byteLength" : 672,
            "byteOffset" : 36384
        },
        {
            "buffer" : 0,
            "byteLength" : 648,
            "byteOffset" : 37056
        },
        {
            "buffer" : 0,
            "byteLength" : 1008,
            "byteOffset" : 37704
        },
        {
            "buffer" : 0,
            "byteLength" : 1008,
            "byteOffset" : 38712
        },
        {
            "buffer" : 0,
            "byteLength" : 672,
            "byteOffset" : 39720
        },
        {
            "buffer" : 0,
            "byteLength" : 672,
            "byteOffset" : 40392
        },
        {
            "buffer" : 0,
            "byteLength" : 432,
            "byteOffset" : 41064
        },
        {
            "buffer" : 0,
            "byteLength" : 48,
            "byteOffset" : 41496
        },
        {
            "buffer" : 0,
            "byteLength" : 48,
            "byteOffset" : 41544
        },
        {
            "buffer" : 0,
            "byteLength" : 32,
            "byteOffset" : 41592
        },
        {
            "buffer" : 0,
            "byteLength" : 12,
            "byteOffset" : 41624
        }
    ],
    "samplers" : [
        {
            "magFilter" : 9729,
            "minFilter" : 9987
        }
    ],
    "buffers" : [
        {
            "byteLength" : 41636,
            "uri" : "Book.bin"
        }
    ]
}
