{
    "asset" : {
        "generator" : "Khronos glTF Blender I/O v1.7.33",
        "version" : "2.0"
    },
    "extensionsUsed" : [
        "KHR_materials_transmission"
    ],
    "scene" : 0,
    "scenes" : [
        {
            "name" : "Scene",
            "nodes" : [
                2
            ]
        }
    ],
    "nodes" : [
        {
            "mesh" : 0,
            "name" : "box",
            "scale" : [
                0.7105263471603394,
                1,
                0.0736842155456543
            ],
            "translation" : [
                0,
                0.0949999988079071,
                0
            ]
        },
        {
            "mesh" : 1,
            "name" : "label",
            "scale" : [
                0.7105263471603394,
                1,
                0.0736842155456543
            ],
            "translation" : [
                0,
                0.0949999988079071,
                0
            ]
        },
        {
            "children" : [
                0,
                1
            ],
            "name" : "DVD,BD_Case"
        }
    ],
    "materials" : [
        {
            "doubleSided" : true,
            "emissiveFactor" : [
                0.004776592832058668,
                0.004776592832058668,
                0.004776592832058668
            ],
            "extensions" : {
                "KHR_materials_transmission" : {
                    "transmissionFactor" : 1
                }
            },
            "name" : "Car plastic dark",
            "pbrMetallicRoughness" : {
                "baseColorFactor" : [
                    1,
                    1,
                    1,
                    0.027522940188646317
                ],
                "metallicFactor" : 0,
                "roughnessFactor" : 0
            }
        },
        {
            "doubleSided" : true,
            "name" : "cover",
            "pbrMetallicRoughness" : {
                "baseColorTexture" : {
                    "index" : 0
                },
                "metallicFactor" : 0,
                "roughnessFactor" : 0.5
            }
        },
        {
            "doubleSided" : true,
            "name" : "spine",
            "pbrMetallicRoughness" : {
                "baseColorFactor" : [
                    1,
                    1,
                    1,
                    0.12844033539295197
                ],
                "metallicFactor" : 0,
                "roughnessFactor" : 0.5
            }
        },
        {
            "doubleSided" : true,
            "name" : "back",
            "pbrMetallicRoughness" : {
                "metallicFactor" : 0,
                "roughnessFactor" : 0.5
            }
        }
    ],
    "meshes" : [
        {
            "name" : "Cube.001",
            "primitives" : [
                {
                    "attributes" : {
                        "POSITION" : 0,
                        "NORMAL" : 1,
                        "TEXCOORD_0" : 2,
                        "TEXCOORD_1" : 3
                    },
                    "indices" : 4,
                    "material" : 0
                }
            ]
        },
        {
            "name" : "Cube.002",
            "primitives" : [
                {
                    "attributes" : {
                        "POSITION" : 5,
                        "NORMAL" : 6,
                        "TEXCOORD_0" : 7
                    },
                    "indices" : 8,
                    "material" : 1
                },
                {
                    "attributes" : {
                        "POSITION" : 9,
                        "NORMAL" : 10,
                        "TEXCOORD_0" : 11
                    },
                    "indices" : 12,
                    "material" : 2
                },
                {
                    "attributes" : {
                        "POSITION" : 13,
                        "NORMAL" : 14,
                        "TEXCOORD_0" : 15
                    },
                    "indices" : 16,
                    "material" : 3
                }
            ]
        }
    ],
    "textures" : [
        {
            "sampler" : 0,
            "source" : 0
        }
    ],
    "images" : [
        {
            "mimeType" : "image/png",
            "name" : "COVER",
            "uri" : "COVER.png"
        }
    ],
    "accessors" : [
        {
            "bufferView" : 0,
            "componentType" : 5126,
            "count" : 87,
            "max" : [
                0.09499999135732651,
                0.0949999988079071,
                0.0949999988079071
            ],
            "min" : [
                -0.09499999135732651,
                -0.0949999988079071,
                -0.0949999988079071
            ],
            "type" : "VEC3"
        },
        {
            "bufferView" : 1,
            "componentType" : 5126,
            "count" : 87,
            "type" : "VEC3"
        },
        {
            "bufferView" : 2,
            "componentType" : 5126,
            "count" : 87,
            "type" : "VEC2"
        },
        {
            "bufferView" : 3,
            "componentType" : 5126,
            "count" : 87,
            "type" : "VEC2"
        },
        {
            "bufferView" : 4,
            "componentType" : 5123,
            "count" : 354,
            "type" : "SCALAR"
        },
        {
            "bufferView" : 5,
            "componentType" : 5126,
            "count" : 4,
            "max" : [
                0.0933096632361412,
                0.0933096632361412,
                0.0949999988079071
            ],
            "min" : [
                -0.0933096632361412,
                -0.0933096632361412,
                0.0949999988079071
            ],
            "type" : "VEC3"
        },
        {
            "bufferView" : 6,
            "componentType" : 5126,
            "count" : 4,
            "type" : "VEC3"
        },
        {
            "bufferView" : 7,
            "componentType" : 5126,
            "count" : 4,
            "type" : "VEC2"
        },
        {
            "bufferView" : 8,
            "componentType" : 5123,
            "count" : 6,
            "type" : "SCALAR"
        },
        {
            "bufferView" : 9,
            "componentType" : 5126,
            "count" : 12,
            "max" : [
                -0.0933096632361412,
                0.0933096632361412,
                0.0949999988079071
            ],
            "min" : [
                -0.09499999135732651,
                -0.0933096632361412,
                -0.0949999988079071
            ],
            "type" : "VEC3"
        },
        {
            "bufferView" : 10,
            "componentType" : 5126,
            "count" : 12,
            "type" : "VEC3"
        },
        {
            "bufferView" : 11,
            "componentType" : 5126,
            "count" : 12,
            "type" : "VEC2"
        },
        {
            "bufferView" : 12,
            "componentType" : 5123,
            "count" : 18,
            "type" : "SCALAR"
        },
        {
            "bufferView" : 13,
            "componentType" : 5126,
            "count" : 4,
            "max" : [
                0.0933096632361412,
                0.0933096632361412,
                -0.0949999988079071
            ],
            "min" : [
                -0.0933096632361412,
                -0.0933096632361412,
                -0.0949999988079071
            ],
            "type" : "VEC3"
        },
        {
            "bufferView" : 14,
            "componentType" : 5126,
            "count" : 4,
            "type" : "VEC3"
        },
        {
            "bufferView" : 15,
            "componentType" : 5126,
            "count" : 4,
            "type" : "VEC2"
        },
        {
            "bufferView" : 16,
            "componentType" : 5123,
            "count" : 6,
            "type" : "SCALAR"
        }
    ],
    "bufferViews" : [
        {
            "buffer" : 0,
            "byteLength" : 1044,
            "byteOffset" : 0
        },
        {
            "buffer" : 0,
            "byteLength" : 1044,
            "byteOffset" : 1044
        },
        {
            "buffer" : 0,
            "byteLength" : 696,
            "byteOffset" : 2088
        },
        {
            "buffer" : 0,
            "byteLength" : 696,
            "byteOffset" : 2784
        },
        {
            "buffer" : 0,
            "byteLength" : 708,
            "byteOffset" : 3480
        },
        {
            "buffer" : 0,
            "byteLength" : 48,
            "byteOffset" : 4188
        },
        {
            "buffer" : 0,
            "byteLength" : 48,
            "byteOffset" : 4236
        },
        {
            "buffer" : 0,
            "byteLength" : 32,
            "byteOffset" : 4284
        },
        {
            "buffer" : 0,
            "byteLength" : 12,
            "byteOffset" : 4316
        },
        {
            "buffer" : 0,
            "byteLength" : 144,
            "byteOffset" : 4328
        },
        {
            "buffer" : 0,
            "byteLength" : 144,
            "byteOffset" : 4472
        },
        {
            "buffer" : 0,
            "byteLength" : 96,
            "byteOffset" : 4616
        },
        {
            "buffer" : 0,
            "byteLength" : 36,
            "byteOffset" : 4712
        },
        {
            "buffer" : 0,
            "byteLength" : 48,
            "byteOffset" : 4748
        },
        {
            "buffer" : 0,
            "byteLength" : 48,
            "byteOffset" : 4796
        },
        {
            "buffer" : 0,
            "byteLength" : 32,
            "byteOffset" : 4844
        },
        {
            "buffer" : 0,
            "byteLength" : 12,
            "byteOffset" : 4876
        }
    ],
    "samplers" : [
        {
            "magFilter" : 9729,
            "minFilter" : 9987
        }
    ],
    "buffers" : [
        {
            "byteLength" : 4888,
            "uri" : "STARWARS.bin"
        }
    ]
}
