{
    "asset" : {
        "generator" : "Khronos glTF Blender I/O v1.7.33",
        "version" : "2.0"
    },
    "scene" : 0,
    "scenes" : [
        {
            "name" : "Scene",
            "nodes" : [
                0,
                1,
                2,
                3,
                4,
                5
            ]
        }
    ],
    "nodes" : [
        {
            "mesh" : 0,
            "name" : "Circle",
            "rotation" : [
                0,
                0,
                0.9999569654464722,
                0.009276928380131721
            ],
            "scale" : [
                0.29950186610221863,
                0.29950186610221863,
                0.29950186610221863
            ],
            "translation" : [
                -0.2881336212158203,
                0.5728883147239685,
                0.4061467945575714
            ]
        },
        {
            "mesh" : 1,
            "name" : "uploads_files_2448833_knob1_Default",
            "rotation" : [
                0.49554941058158875,
                0.5044113397598267,
                -0.5044113993644714,
                0.4955493211746216
            ],
            "scale" : [
                0.030406471341848373,
                0.030406471341848373,
                0.030406471341848373
            ],
            "translation" : [
                0.09141284227371216,
                1.0360854864120483,
                0.4188510775566101
            ]
        },
        {
            "mesh" : 2,
            "name" : "Wheel_RL_Tire_MAT_0",
            "rotation" : [
                0,
                0,
                0.7130831480026245,
                -0.7010794878005981
            ],
            "translation" : [
                -0.28665634989738464,
                1.330759048461914,
                0.43091434240341187
            ]
        },
        {
            "mesh" : 3,
            "name" : "Wheel_RL_Tire_MAT_0.001",
            "rotation" : [
                0,
                0,
                0.7130831480026245,
                -0.7010794878005981
            ],
            "translation" : [
                -0.27295777201652527,
                1.1011080741882324,
                0.4075703024864197
            ]
        },
        {
            "mesh" : 4,
            "name" : "Wheel_RL_Tire_MAT_0.002",
            "rotation" : [
                0,
                0,
                0.7130831480026245,
                -0.7010794878005981
            ],
            "translation" : [
                -0.30030742287635803,
                0.885462760925293,
                0.43091434240341187
            ]
        },
        {
            "mesh" : 5,
            "name" : "Wheel_RL_Tire_MAT_0.003",
            "rotation" : [
                0,
                0,
                0.7130831480026245,
                -0.7010794878005981
            ],
            "translation" : [
                -0.28113704919815063,
                0.6603252291679382,
                0.40936601161956787
            ]
        }
    ],
    "materials" : [
        {
            "doubleSided" : true,
            "name" : "Material.004",
            "pbrMetallicRoughness" : {
                "baseColorFactor" : [
                    0,
                    0,
                    0,
                    1
                ],
                "metallicFactor" : 0
            }
        },
        {
            "doubleSided" : true,
            "name" : "Material.007",
            "pbrMetallicRoughness" : {
                "baseColorFactor" : [
                    0,
                    0,
                    0,
                    1
                ],
                "metallicFactor" : 0,
                "roughnessFactor" : 0.17889907956123352
            }
        },
        {
            "doubleSided" : true,
            "name" : "Tire_MAT",
            "normalTexture" : {
                "index" : 0
            },
            "pbrMetallicRoughness" : {
                "metallicFactor" : 0,
                "roughnessFactor" : 0.5
            }
        },
        {
            "doubleSided" : true,
            "name" : "Tire_MAT.001",
            "normalTexture" : {
                "index" : 1
            },
            "pbrMetallicRoughness" : {
                "metallicFactor" : 0,
                "roughnessFactor" : 0.5
            }
        },
        {
            "doubleSided" : true,
            "name" : "Tire_MAT.010",
            "normalTexture" : {
                "index" : 2
            },
            "pbrMetallicRoughness" : {
                "metallicFactor" : 0,
                "roughnessFactor" : 0.5
            }
        },
        {
            "doubleSided" : true,
            "name" : "Tire_MAT.011",
            "normalTexture" : {
                "index" : 3
            },
            "pbrMetallicRoughness" : {
                "metallicFactor" : 0,
                "roughnessFactor" : 0.5
            }
        }
    ],
    "meshes" : [
        {
            "name" : "Circle.001",
            "primitives" : [
                {
                    "attributes" : {
                        "POSITION" : 0,
                        "NORMAL" : 1,
                        "TEXCOORD_0" : 2
                    },
                    "indices" : 3,
                    "material" : 0
                }
            ]
        },
        {
            "name" : "uploads_files_2448833_knob1_Default",
            "primitives" : [
                {
                    "attributes" : {
                        "POSITION" : 4,
                        "NORMAL" : 5,
                        "TEXCOORD_0" : 6
                    },
                    "indices" : 7,
                    "material" : 1
                }
            ]
        },
        {
            "name" : "Wheel_RL_Tire_MAT_0.001",
            "primitives" : [
                {
                    "attributes" : {
                        "POSITION" : 8,
                        "NORMAL" : 9,
                        "TEXCOORD_0" : 10,
                        "TEXCOORD_1" : 11,
                        "TEXCOORD_2" : 12
                    },
                    "indices" : 13,
                    "material" : 2
                }
            ]
        },
        {
            "name" : "Wheel_RL_Tire_MAT_0.002",
            "primitives" : [
                {
                    "attributes" : {
                        "POSITION" : 14,
                        "NORMAL" : 15,
                        "TEXCOORD_0" : 16,
                        "TEXCOORD_1" : 17,
                        "TEXCOORD_2" : 18
                    },
                    "indices" : 13,
                    "material" : 3
                }
            ]
        },
        {
            "name" : "Wheel_RL_Tire_MAT_0.003",
            "primitives" : [
                {
                    "attributes" : {
                        "POSITION" : 19,
                        "NORMAL" : 20,
                        "TEXCOORD_0" : 21,
                        "TEXCOORD_1" : 22,
                        "TEXCOORD_2" : 23
                    },
                    "indices" : 13,
                    "material" : 4
                }
            ]
        },
        {
            "name" : "Wheel_RL_Tire_MAT_0.004",
            "primitives" : [
                {
                    "attributes" : {
                        "POSITION" : 24,
                        "NORMAL" : 25,
                        "TEXCOORD_0" : 26,
                        "TEXCOORD_1" : 27,
                        "TEXCOORD_2" : 28
                    },
                    "indices" : 13,
                    "material" : 5
                }
            ]
        }
    ],
    "textures" : [
        {
            "sampler" : 0,
            "source" : 0
        },
        {
            "sampler" : 0,
            "source" : 0
        },
        {
            "sampler" : 0,
            "source" : 0
        },
        {
            "sampler" : 0,
            "source" : 0
        }
    ],
    "images" : [
        {
            "mimeType" : "image/png",
            "name" : "Tire_MAT_normal",
            "uri" : "Tire_MAT_normal.png"
        }
    ],
    "accessors" : [
        {
            "bufferView" : 0,
            "componentType" : 5126,
            "count" : 32,
            "max" : [
                1,
                0,
                1
            ],
            "min" : [
                -1,
                0,
                -1
            ],
            "type" : "VEC3"
        },
        {
            "bufferView" : 1,
            "componentType" : 5126,
            "count" : 32,
            "type" : "VEC3"
        },
        {
            "bufferView" : 2,
            "componentType" : 5126,
            "count" : 32,
            "type" : "VEC2"
        },
        {
            "bufferView" : 3,
            "componentType" : 5123,
            "count" : 90,
            "type" : "SCALAR"
        },
        {
            "bufferView" : 4,
            "componentType" : 5126,
            "count" : 1326,
            "max" : [
                1.8077068328857422,
                6.646421432495117,
                11.499425888061523
            ],
            "min" : [
                -1.7808021306991577,
                -0.8251651525497437,
                -11.499425888061523
            ],
            "type" : "VEC3"
        },
        {
            "bufferView" : 5,
            "componentType" : 5126,
            "count" : 1326,
            "type" : "VEC3"
        },
        {
            "bufferView" : 6,
            "componentType" : 5126,
            "count" : 1326,
            "type" : "VEC2"
        },
        {
            "bufferView" : 7,
            "componentType" : 5123,
            "count" : 7296,
            "type" : "SCALAR"
        },
        {
            "bufferView" : 8,
            "componentType" : 5126,
            "count" : 4891,
            "max" : [
                0.08526786416769028,
                0.37989041209220886,
                0.3835383355617523
            ],
            "min" : [
                -0.15830914676189423,
                -0.3786114752292633,
                -0.38395601511001587
            ],
            "type" : "VEC3"
        },
        {
            "bufferView" : 9,
            "componentType" : 5126,
            "count" : 4891,
            "type" : "VEC3"
        },
        {
            "bufferView" : 10,
            "componentType" : 5126,
            "count" : 4891,
            "type" : "VEC2"
        },
        {
            "bufferView" : 11,
            "componentType" : 5126,
            "count" : 4891,
            "type" : "VEC2"
        },
        {
            "bufferView" : 12,
            "componentType" : 5126,
            "count" : 4891,
            "type" : "VEC2"
        },
        {
            "bufferView" : 13,
            "componentType" : 5123,
            "count" : 21504,
            "type" : "SCALAR"
        },
        {
            "bufferView" : 14,
            "componentType" : 5126,
            "count" : 4891,
            "max" : [
                0.08526786416769028,
                0.37989041209220886,
                0.3835383355617523
            ],
            "min" : [
                -0.15830914676189423,
                -0.3786114752292633,
                -0.38395601511001587
            ],
            "type" : "VEC3"
        },
        {
            "bufferView" : 15,
            "componentType" : 5126,
            "count" : 4891,
            "type" : "VEC3"
        },
        {
            "bufferView" : 16,
            "componentType" : 5126,
            "count" : 4891,
            "type" : "VEC2"
        },
        {
            "bufferView" : 17,
            "componentType" : 5126,
            "count" : 4891,
            "type" : "VEC2"
        },
        {
            "bufferView" : 18,
            "componentType" : 5126,
            "count" : 4891,
            "type" : "VEC2"
        },
        {
            "bufferView" : 19,
            "componentType" : 5126,
            "count" : 4891,
            "max" : [
                0.08526786416769028,
                0.37989041209220886,
                0.3835383355617523
            ],
            "min" : [
                -0.15830914676189423,
                -0.3786114752292633,
                -0.38395601511001587
            ],
            "type" : "VEC3"
        },
        {
            "bufferView" : 20,
            "componentType" : 5126,
            "count" : 4891,
            "type" : "VEC3"
        },
        {
            "bufferView" : 21,
            "componentType" : 5126,
            "count" : 4891,
            "type" : "VEC2"
        },
        {
            "bufferView" : 22,
            "componentType" : 5126,
            "count" : 4891,
            "type" : "VEC2"
        },
        {
            "bufferView" : 23,
            "componentType" : 5126,
            "count" : 4891,
            "type" : "VEC2"
        },
        {
            "bufferView" : 24,
            "componentType" : 5126,
            "count" : 4891,
            "max" : [
                0.08526786416769028,
                0.37989041209220886,
                0.3835383355617523
            ],
            "min" : [
                -0.15830914676189423,
                -0.3786114752292633,
                -0.38395601511001587
            ],
            "type" : "VEC3"
        },
        {
            "bufferView" : 25,
            "componentType" : 5126,
            "count" : 4891,
            "type" : "VEC3"
        },
        {
            "bufferView" : 26,
            "componentType" : 5126,
            "count" : 4891,
            "type" : "VEC2"
        },
        {
            "bufferView" : 27,
            "componentType" : 5126,
            "count" : 4891,
            "type" : "VEC2"
        },
        {
            "bufferView" : 28,
            "componentType" : 5126,
            "count" : 4891,
            "type" : "VEC2"
        }
    ],
    "bufferViews" : [
        {
            "buffer" : 0,
            "byteLength" : 384,
            "byteOffset" : 0
        },
        {
            "buffer" : 0,
            "byteLength" : 384,
            "byteOffset" : 384
        },
        {
            "buffer" : 0,
            "byteLength" : 256,
            "byteOffset" : 768
        },
        {
            "buffer" : 0,
            "byteLength" : 180,
            "byteOffset" : 1024
        },
        {
            "buffer" : 0,
            "byteLength" : 15912,
            "byteOffset" : 1204
        },
        {
            "buffer" : 0,
            "byteLength" : 15912,
            "byteOffset" : 17116
        },
        {
            "buffer" : 0,
            "byteLength" : 10608,
            "byteOffset" : 33028
        },
        {
            "buffer" : 0,
            "byteLength" : 14592,
            "byteOffset" : 43636
        },
        {
            "buffer" : 0,
            "byteLength" : 58692,
            "byteOffset" : 58228
        },
        {
            "buffer" : 0,
            "byteLength" : 58692,
            "byteOffset" : 116920
        },
        {
            "buffer" : 0,
            "byteLength" : 39128,
            "byteOffset" : 175612
        },
        {
            "buffer" : 0,
            "byteLength" : 39128,
            "byteOffset" : 214740
        },
        {
            "buffer" : 0,
            "byteLength" : 39128,
            "byteOffset" : 253868
        },
        {
            "buffer" : 0,
            "byteLength" : 43008,
            "byteOffset" : 292996
        },
        {
            "buffer" : 0,
            "byteLength" : 58692,
            "byteOffset" : 336004
        },
        {
            "buffer" : 0,
            "byteLength" : 58692,
            "byteOffset" : 394696
        },
        {
            "buffer" : 0,
            "byteLength" : 39128,
            "byteOffset" : 453388
        },
        {
            "buffer" : 0,
            "byteLength" : 39128,
            "byteOffset" : 492516
        },
        {
            "buffer" : 0,
            "byteLength" : 39128,
            "byteOffset" : 531644
        },
        {
            "buffer" : 0,
            "byteLength" : 58692,
            "byteOffset" : 570772
        },
        {
            "buffer" : 0,
            "byteLength" : 58692,
            "byteOffset" : 629464
        },
        {
            "buffer" : 0,
            "byteLength" : 39128,
            "byteOffset" : 688156
        },
        {
            "buffer" : 0,
            "byteLength" : 39128,
            "byteOffset" : 727284
        },
        {
            "buffer" : 0,
            "byteLength" : 39128,
            "byteOffset" : 766412
        },
        {
            "buffer" : 0,
            "byteLength" : 58692,
            "byteOffset" : 805540
        },
        {
            "buffer" : 0,
            "byteLength" : 58692,
            "byteOffset" : 864232
        },
        {
            "buffer" : 0,
            "byteLength" : 39128,
            "byteOffset" : 922924
        },
        {
            "buffer" : 0,
            "byteLength" : 39128,
            "byteOffset" : 962052
        },
        {
            "buffer" : 0,
            "byteLength" : 39128,
            "byteOffset" : 1001180
        }
    ],
    "samplers" : [
        {
            "magFilter" : 9729,
            "minFilter" : 9987
        }
    ],
    "buffers" : [
        {
            "byteLength" : 1040308,
            "uri" : "tirecup.bin"
        }
    ]
}
